TITLE ""
FILE "P1Q_j_1656-1669.mp3" MP3
  TRACK 01 AUDIO
    TITLE "P1Q_j_1656-1669_01"
    INDEX 01 00:00:00
  TRACK 02 AUDIO
    TITLE "P1Q_j_1656-1669_02"
    INDEX 01 00:00:24
  TRACK 03 AUDIO
    TITLE "P1Q_j_1656-1669_03"
    INDEX 01 00:01:53
  TRACK 04 AUDIO
    TITLE "P1Q_j_1656-1669_04"
    INDEX 01 00:01:72
  TRACK 05 AUDIO
    TITLE "P1Q_j_1656-1669_05"
    INDEX 01 00:04:63
  TRACK 06 AUDIO
    TITLE "P1Q_j_1656-1669_06"
    INDEX 01 00:05:10
  TRACK 07 AUDIO
    TITLE "P1Q_j_1656-1669_07"
    INDEX 01 00:11:28
  TRACK 08 AUDIO
    TITLE "P1Q_j_1656-1669_08"
    INDEX 01 00:12:00
  TRACK 09 AUDIO
    TITLE "P1Q_j_1656-1669_09"
    INDEX 01 00:13:46
  TRACK 10 AUDIO
    TITLE "P1Q_j_1656-1669_10"
    INDEX 01 00:13:70
  TRACK 11 AUDIO
    TITLE "P1Q_j_1656-1669_11"
    INDEX 01 00:16:49
  TRACK 12 AUDIO
    TITLE "P1Q_j_1656-1669_12"
    INDEX 01 00:16:68
  TRACK 13 AUDIO
    TITLE "P1Q_j_1656-1669_13"
    INDEX 01 00:22:14
  TRACK 14 AUDIO
    TITLE "P1Q_j_1656-1669_14"
    INDEX 01 00:22:61
  TRACK 15 AUDIO
    TITLE "P1Q_j_1656-1669_15"
    INDEX 01 00:24:34
  TRACK 16 AUDIO
    TITLE "P1Q_j_1656-1669_16"
    INDEX 01 00:24:54
  TRACK 17 AUDIO
    TITLE "P1Q_j_1656-1669_17"
    INDEX 01 00:30:54
  TRACK 18 AUDIO
    TITLE "P1Q_j_1656-1669_18"
    INDEX 01 00:30:74
  TRACK 19 AUDIO
    TITLE "P1Q_j_1656-1669_19"
    INDEX 01 00:36:39
  TRACK 20 AUDIO
    TITLE "P1Q_j_1656-1669_20"
    INDEX 01 00:37:09
  TRACK 21 AUDIO
    TITLE "P1Q_j_1656-1669_21"
    INDEX 01 00:38:36
  TRACK 22 AUDIO
    TITLE "P1Q_j_1656-1669_22"
    INDEX 01 00:38:58
  TRACK 23 AUDIO
    TITLE "P1Q_j_1656-1669_23"
    INDEX 01 00:43:00
  TRACK 24 AUDIO
    TITLE "P1Q_j_1656-1669_24"
    INDEX 01 00:43:20
  TRACK 25 AUDIO
    TITLE "P1Q_j_1656-1669_25"
    INDEX 01 00:47:41
  TRACK 26 AUDIO
    TITLE "P1Q_j_1656-1669_26"
    INDEX 01 00:48:11
  TRACK 27 AUDIO
    TITLE "P1Q_j_1656-1669_27"
    INDEX 01 00:49:44
  TRACK 28 AUDIO
    TITLE "P1Q_j_1656-1669_28"
    INDEX 01 00:49:64
  TRACK 29 AUDIO
    TITLE "P1Q_j_1656-1669_29"
    INDEX 01 00:51:61
  TRACK 30 AUDIO
    TITLE "P1Q_j_1656-1669_30"
    INDEX 01 00:52:05
  TRACK 31 AUDIO
    TITLE "P1Q_j_1656-1669_31"
    INDEX 01 00:56:34
  TRACK 32 AUDIO
    TITLE "P1Q_j_1656-1669_32"
    INDEX 01 00:57:06
  TRACK 33 AUDIO
    TITLE "P1Q_j_1656-1669_33"
    INDEX 01 00:58:35
  TRACK 34 AUDIO
    TITLE "P1Q_j_1656-1669_34"
    INDEX 01 00:58:53
  TRACK 35 AUDIO
    TITLE "P1Q_j_1656-1669_35"
    INDEX 01 01:00:54
  TRACK 36 AUDIO
    TITLE "P1Q_j_1656-1669_36"
    INDEX 01 01:00:73
  TRACK 37 AUDIO
    TITLE "P1Q_j_1656-1669_37"
    INDEX 01 01:06:03
  TRACK 38 AUDIO
    TITLE "P1Q_j_1656-1669_38"
    INDEX 01 01:06:48
  TRACK 39 AUDIO
    TITLE "P1Q_j_1656-1669_39"
    INDEX 01 01:08:08
  TRACK 40 AUDIO
    TITLE "P1Q_j_1656-1669_40"
    INDEX 01 01:08:28
  TRACK 41 AUDIO
    TITLE "P1Q_j_1656-1669_41"
    INDEX 01 01:10:48
  TRACK 42 AUDIO
    TITLE "P1Q_j_1656-1669_42"
    INDEX 01 01:10:66
  TRACK 43 AUDIO
    TITLE "P1Q_j_1656-1669_43"
    INDEX 01 01:14:62
  TRACK 44 AUDIO
    TITLE "P1Q_j_1656-1669_44"
    INDEX 01 01:15:32
  TRACK 45 AUDIO
    TITLE "P1Q_j_1656-1669_45"
    INDEX 01 01:16:47
  TRACK 46 AUDIO
    TITLE "P1Q_j_1656-1669_46"
    INDEX 01 01:16:70
  TRACK 47 AUDIO
    TITLE "P1Q_j_1656-1669_47"
    INDEX 01 01:21:42
  TRACK 48 AUDIO
    TITLE "P1Q_j_1656-1669_48"
    INDEX 01 01:21:60
  TRACK 49 AUDIO
    TITLE "P1Q_j_1656-1669_49"
    INDEX 01 01:25:65
  TRACK 50 AUDIO
    TITLE "P1Q_j_1656-1669_50"
    INDEX 01 01:26:35
  TRACK 51 AUDIO
    TITLE "P1Q_j_1656-1669_51"
    INDEX 01 01:27:52
  TRACK 52 AUDIO
    TITLE "P1Q_j_1656-1669_52"
    INDEX 01 01:27:74
  TRACK 53 AUDIO
    TITLE "P1Q_j_1656-1669_53"
    INDEX 01 01:32:36
  TRACK 54 AUDIO
    TITLE "P1Q_j_1656-1669_54"
    INDEX 01 01:32:56
  TRACK 55 AUDIO
    TITLE "P1Q_j_1656-1669_55"
    INDEX 01 01:37:08
  TRACK 56 AUDIO
    TITLE "P1Q_j_1656-1669_56"
    INDEX 01 01:37:53
  TRACK 57 AUDIO
    TITLE "P1Q_j_1656-1669_57"
    INDEX 01 01:39:11
  TRACK 58 AUDIO
    TITLE "P1Q_j_1656-1669_58"
    INDEX 01 01:39:32
  TRACK 59 AUDIO
    TITLE "P1Q_j_1656-1669_59"
    INDEX 01 01:41:70
  TRACK 60 AUDIO
    TITLE "P1Q_j_1656-1669_60"
    INDEX 01 01:42:15
  TRACK 61 AUDIO
    TITLE "P1Q_j_1656-1669_61"
    INDEX 01 01:46:38
  TRACK 62 AUDIO
    TITLE "P1Q_j_1656-1669_62"
    INDEX 01 01:47:10
  TRACK 63 AUDIO
    TITLE "P1Q_j_1656-1669_63"
    INDEX 01 01:48:55
  TRACK 64 AUDIO
    TITLE "P1Q_j_1656-1669_64"
    INDEX 01 01:48:74
  TRACK 65 AUDIO
    TITLE "P1Q_j_1656-1669_65"
    INDEX 01 01:51:08
  TRACK 66 AUDIO
    TITLE "P1Q_j_1656-1669_66"
    INDEX 01 01:51:27
  TRACK 67 AUDIO
    TITLE "P1Q_j_1656-1669_67"
    INDEX 01 01:54:57
  TRACK 68 AUDIO
    TITLE "P1Q_j_1656-1669_68"
    INDEX 01 01:55:29
  TRACK 69 AUDIO
    TITLE "P1Q_j_1656-1669_69"
    INDEX 01 01:57:05
  TRACK 70 AUDIO
    TITLE "P1Q_j_1656-1669_70"
    INDEX 01 01:57:24
  TRACK 71 AUDIO
    TITLE "P1Q_j_1656-1669_71"
    INDEX 01 01:59:07
  TRACK 72 AUDIO
    TITLE "P1Q_j_1656-1669_72"
    INDEX 01 01:59:25
  TRACK 73 AUDIO
    TITLE "P1Q_j_1656-1669_73"
    INDEX 01 02:03:54
  TRACK 74 AUDIO
    TITLE "P1Q_j_1656-1669_74"
    INDEX 01 02:04:24
  TRACK 75 AUDIO
    TITLE "P1Q_j_1656-1669_75"
    INDEX 01 02:05:61
  TRACK 76 AUDIO
    TITLE "P1Q_j_1656-1669_76"
    INDEX 01 02:06:07
  TRACK 77 AUDIO
    TITLE "P1Q_j_1656-1669_77"
    INDEX 01 02:09:06
  TRACK 78 AUDIO
    TITLE "P1Q_j_1656-1669_78"
    INDEX 01 02:09:25
  TRACK 79 AUDIO
    TITLE "P1Q_j_1656-1669_79"
    INDEX 01 02:13:45
  TRACK 80 AUDIO
    TITLE "P1Q_j_1656-1669_80"
    INDEX 01 02:14:15
  TRACK 81 AUDIO
    TITLE "P1Q_j_1656-1669_81"
    INDEX 01 02:15:52
  TRACK 82 AUDIO
    TITLE "P1Q_j_1656-1669_82"
    INDEX 01 02:15:73
  TRACK 83 AUDIO
    TITLE "P1Q_j_1656-1669_83"
    INDEX 01 02:19:71
  TRACK 84 AUDIO
    TITLE "P1Q_j_1656-1669_84"
    INDEX 01 02:20:15
  TRACK 85 AUDIO
    TITLE "P1Q_j_1656-1669_85"
    INDEX 01 02:23:33
